<svg width="36" height="36" viewBox="0 0 36 36" fill="none" xmlns="http://www.w3.org/2000/svg">
<path d="M8.20548 16.125C7.14048 16.125 6.06048 15.735 5.23548 14.94C2.47548 12.315 1.36548 9.45 2.01048 6.645C2.77548 3.345 5.67048 1.875 8.20548 1.875C10.7405 1.875 13.6505 3.36 14.4005 6.645C15.0455 9.45 13.9205 12.315 11.1755 14.94C10.3505 15.735 9.28548 16.125 8.20548 16.125ZM4.20048 7.155C3.63048 9.66 5.29548 11.88 6.79548 13.305C7.59048 14.07 8.83548 14.055 9.63048 13.305C11.1305 11.88 12.7955 9.66 12.2105 7.14C11.7005 4.92 9.73548 4.125 8.22048 4.125C6.69048 4.125 4.72548 4.92 4.20048 7.155Z" fill="#134B40"/>
<path d="M8.26465 9.3C7.43965 9.3 6.76465 8.625 6.76465 7.8C6.76465 6.975 7.42465 6.3 8.26465 6.3H8.27965C9.10465 6.3 9.77965 6.975 9.77965 7.8C9.77965 8.625 9.10465 9.3 8.26465 9.3Z" fill="#134B40"/>
<path d="M27.7351 34.125C26.6701 34.125 25.5901 33.735 24.7501 32.94C21.9751 30.315 20.8501 27.45 21.5101 24.63C22.2751 21.345 25.1851 19.86 27.7351 19.86C30.2851 19.86 33.1951 21.345 33.9601 24.63C34.6051 27.435 33.4801 30.315 30.7051 32.925C29.8801 33.735 28.8151 34.125 27.7351 34.125ZM27.7351 22.125C26.2051 22.125 24.2251 22.92 23.7001 25.155C23.1151 27.66 24.7951 29.895 26.2951 31.32C27.0901 32.085 28.3501 32.085 29.1601 31.32C30.6601 29.895 32.3401 27.675 31.7551 25.17C31.2601 22.92 29.2801 22.125 27.7351 22.125Z" fill="#134B40"/>
<path d="M27.7949 27.3C26.9699 27.3 26.2949 26.625 26.2949 25.8C26.2949 24.975 26.9549 24.3 27.7949 24.3H27.8099C28.6349 24.3 29.3099 24.975 29.3099 25.8C29.3099 26.625 28.6199 27.3 27.7949 27.3Z" fill="#134B40"/>
<path d="M18.0002 29.625H13.9802C12.2402 29.625 10.7252 28.575 10.1252 26.955C9.51016 25.335 9.96016 23.55 11.2652 22.395L23.2502 11.91C23.9702 11.28 23.9852 10.425 23.7752 9.84C23.5502 9.255 22.9802 8.625 22.0202 8.625H18.0002C17.3852 8.625 16.8752 8.115 16.8752 7.5C16.8752 6.885 17.3852 6.375 18.0002 6.375H22.0202C23.7602 6.375 25.2752 7.425 25.8752 9.045C26.4902 10.665 26.0402 12.45 24.7352 13.605L12.7502 24.09C12.0302 24.72 12.0152 25.575 12.2252 26.16C12.4502 26.745 13.0202 27.375 13.9802 27.375H18.0002C18.6152 27.375 19.1252 27.885 19.1252 28.5C19.1252 29.115 18.6152 29.625 18.0002 29.625Z" fill="#134B40"/>
<path d="M18.0002 29.625H13.9802C12.2402 29.625 10.7252 28.575 10.1252 26.955C9.51016 25.335 9.96016 23.55 11.2652 22.395L23.2502 11.91C23.9702 11.28 23.9852 10.425 23.7752 9.84C23.5502 9.255 22.9802 8.625 22.0202 8.625H18.0002C17.3852 8.625 16.8752 8.115 16.8752 7.5C16.8752 6.885 17.3852 6.375 18.0002 6.375H22.0202C23.7602 6.375 25.2752 7.425 25.8752 9.045C26.4902 10.665 26.0402 12.45 24.7352 13.605L12.7502 24.09C12.0302 24.72 12.0152 25.575 12.2252 26.16C12.4502 26.745 13.0202 27.375 13.9802 27.375H18.0002C18.6152 27.375 19.1252 27.885 19.1252 28.5C19.1252 29.115 18.6152 29.625 18.0002 29.625Z" fill="#134B40"/>
</svg>
