<svg width="36" height="36" viewBox="0 0 36 36" fill="none" xmlns="http://www.w3.org/2000/svg">
<path d="M9.00017 16.965C9.00017 16.95 9.00017 16.95 9.00017 16.935C9.01517 15.375 9.99016 14.055 11.4752 13.59L20.8952 10.665C22.1702 10.275 23.5352 10.605 24.4652 11.55C25.3952 12.48 25.7252 13.83 25.3352 15.09L22.4102 24.525C21.9452 26.025 20.6252 27 19.0652 27.015C17.5052 27.03 16.1852 26.085 15.6902 24.6L14.8202 22.02C14.6852 21.63 14.4002 21.345 14.0252 21.21L11.4302 20.325C9.94516 19.83 9.00017 18.51 9.00017 16.965ZM23.2502 14.01C23.2502 13.56 23.0102 13.26 22.8752 13.125C22.5302 12.78 22.0352 12.66 21.5702 12.81L12.1502 15.735C11.3252 15.99 11.2502 16.725 11.2502 16.95C11.2652 17.13 11.3102 17.895 12.1352 18.165L14.7302 19.05C15.7652 19.395 16.6052 20.235 16.9502 21.27L17.8202 23.85C17.8202 23.85 17.8202 23.85 17.8202 23.865C18.0902 24.69 18.8252 24.75 19.0352 24.75C19.2602 24.75 19.9952 24.675 20.2502 23.85L23.1752 14.415C23.2352 14.265 23.2502 14.13 23.2502 14.01Z" fill="white"/>
<path d="M1.875 18C1.875 9.105 9.105 1.875 18 1.875C26.895 1.875 34.125 9.105 34.125 18C34.125 26.895 26.895 34.125 18 34.125C9.105 34.125 1.875 26.895 1.875 18ZM31.875 18C31.875 10.35 25.65 4.125 18 4.125C10.35 4.125 4.125 10.35 4.125 18C4.125 25.65 10.35 31.875 18 31.875C25.65 31.875 31.875 25.65 31.875 18Z" fill="white"/>
</svg>
