<svg width="36" height="36" viewBox="0 0 36 36" fill="none" xmlns="http://www.w3.org/2000/svg">
<path d="M3 14.625C2.385 14.625 1.875 14.115 1.875 13.5V9.75C1.875 5.4 5.415 1.875 9.75 1.875H13.5C14.115 1.875 14.625 2.385 14.625 3C14.625 3.615 14.115 4.125 13.5 4.125H9.75C6.645 4.125 4.125 6.645 4.125 9.75V13.5C4.125 14.115 3.615 14.625 3 14.625Z" fill="white"/>
<path d="M33 14.625C32.385 14.625 31.875 14.115 31.875 13.5V9.75C31.875 6.645 29.355 4.125 26.25 4.125H22.5C21.885 4.125 21.375 3.615 21.375 3C21.375 2.385 21.885 1.875 22.5 1.875H26.25C30.585 1.875 34.125 5.4 34.125 9.75V13.5C34.125 14.115 33.615 14.625 33 14.625Z" fill="white"/>
<path d="M26.25 34.125H24C23.385 34.125 22.875 33.615 22.875 33C22.875 32.385 23.385 31.875 24 31.875H26.25C29.355 31.875 31.875 29.355 31.875 26.25V24C31.875 23.385 32.385 22.875 33 22.875C33.615 22.875 34.125 23.385 34.125 24V26.25C34.125 30.6 30.585 34.125 26.25 34.125Z" fill="white"/>
<path d="M13.5 34.125H9.75C5.415 34.125 1.875 30.6 1.875 26.25V22.5C1.875 21.885 2.385 21.375 3 21.375C3.615 21.375 4.125 21.885 4.125 22.5V26.25C4.125 29.355 6.645 31.875 9.75 31.875H13.5C14.115 31.875 14.625 32.385 14.625 33C14.625 33.615 14.115 34.125 13.5 34.125Z" fill="white"/>
<path d="M21 27.375H15C11.37 27.375 9.375 25.38 9.375 21.75V14.25C9.375 10.62 11.37 8.625 15 8.625H21C24.63 8.625 26.625 10.62 26.625 14.25V21.75C26.625 25.38 24.63 27.375 21 27.375ZM15 10.875C12.63 10.875 11.625 11.88 11.625 14.25V21.75C11.625 24.12 12.63 25.125 15 25.125H21C23.37 25.125 24.375 24.12 24.375 21.75V14.25C24.375 11.88 23.37 10.875 21 10.875H15Z" fill="white"/>
<path d="M28.5 19.125H7.5C6.885 19.125 6.375 18.615 6.375 18C6.375 17.385 6.885 16.875 7.5 16.875H28.5C29.115 16.875 29.625 17.385 29.625 18C29.625 18.615 29.115 19.125 28.5 19.125Z" fill="white"/>
</svg>
