<svg width="36" height="36" viewBox="0 0 36 36" fill="none" xmlns="http://www.w3.org/2000/svg">
<path d="M18.0153 34.1251C17.0703 34.1251 16.1253 33.8101 15.3903 33.1801L13.0203 31.1401C12.7803 30.9301 12.1803 30.7201 11.8653 30.7201H9.27031C7.05031 30.7201 5.25032 28.9202 5.25032 26.7002V24.1351C5.25032 23.8201 5.04032 23.235 4.83032 22.995L2.80531 20.6101C1.57531 19.1551 1.57531 16.8601 2.80531 15.4051L4.83032 13.0202C5.04032 12.7802 5.25032 12.1952 5.25032 11.8802V9.31506C5.25032 7.09506 7.05031 5.29516 9.27031 5.29516H11.8653C12.1803 5.29516 12.7803 5.07011 13.0203 4.87511L15.3903 2.83514C16.8603 1.57514 19.1553 1.57514 20.6253 2.83514L22.9953 4.87511C23.2353 5.08511 23.8353 5.29516 24.1503 5.29516H26.7003C28.9203 5.29516 30.7203 7.09506 30.7203 9.31506V11.8652C30.7203 12.1802 30.9453 12.7802 31.1553 13.0202L33.1803 15.3901C34.4403 16.8601 34.4403 19.1551 33.1803 20.6251L31.1553 22.995C30.9453 23.235 30.7353 23.8351 30.7353 24.1501V26.7002C30.7353 28.9202 28.9353 30.7201 26.7153 30.7201H24.1653C23.8503 30.7201 23.2503 30.9451 23.0103 31.1401L20.6403 33.1801C19.8903 33.8101 18.9453 34.1251 18.0153 34.1251ZM9.27031 7.53014C8.29531 7.53014 7.50032 8.32504 7.50032 9.30004V11.8652C7.50032 12.7202 7.09531 13.8151 6.55531 14.4601L4.5303 16.8451C4.0053 17.4601 4.0053 18.5251 4.5303 19.1401L6.55531 21.5251C7.11031 22.1851 7.51533 23.28 7.51533 24.12V26.6852C7.51533 27.6602 8.31032 28.4551 9.28532 28.4551H11.8803C12.7503 28.4551 13.8453 28.8601 14.5053 29.4301L16.8753 31.4701C17.4903 31.9951 18.5703 31.9951 19.1853 31.4701L21.5553 29.4301C22.2153 28.8751 23.3103 28.4551 24.1803 28.4551H26.7303C27.7053 28.4551 28.5003 27.6602 28.5003 26.6852V24.1351C28.5003 23.2651 28.9053 22.1701 29.4753 21.5101L31.5003 19.1401C32.0253 18.5251 32.0253 17.4451 31.5003 16.8301L29.4753 14.4601C28.9203 13.8001 28.5003 12.7051 28.5003 11.8351V9.28503C28.5003 8.31003 27.7053 7.51513 26.7303 7.51513H24.1803C23.3253 7.51513 22.2153 7.11009 21.5553 6.54009L19.1853 4.50011C18.5703 3.97511 17.4903 3.97511 16.8753 4.50011L14.5053 6.54009C13.8453 7.09509 12.7503 7.51513 11.8803 7.51513H9.27031V7.53014Z" fill="white"/>
<path d="M20.9996 25.455H18.3296C17.6996 25.455 16.7546 25.26 16.1996 24.705L14.1297 23.1151L15.5096 21.33L17.6846 23.01C17.8346 23.115 18.1046 23.19 18.3296 23.19H20.9996C21.3596 23.19 21.7946 22.8751 21.8696 22.5601L23.5796 17.355C23.6246 17.22 23.6246 17.1301 23.6096 17.1001C23.5796 17.0551 23.4746 17.01 23.3246 17.01H20.5196C19.9796 17.01 19.4846 16.7851 19.1246 16.3801C18.7796 15.9751 18.6146 15.4351 18.6896 14.8801L19.0497 12.6151C19.0797 12.4951 18.9896 12.345 18.8996 12.315C18.8096 12.3 18.6747 12.33 18.6297 12.375L15.7646 16.635L13.8896 15.375L16.7696 11.1001C17.3696 10.2001 18.6296 9.81009 19.6496 10.1851C20.7896 10.5601 21.5246 11.8501 21.2696 13.0201L20.9996 14.73H23.3246C24.2096 14.73 24.9896 15.105 25.4546 15.765C25.9046 16.41 26.0096 17.2501 25.7246 18.0451L24.0446 23.1451C23.7296 24.4351 22.3946 25.455 20.9996 25.455Z" fill="white"/>
<path d="M13.3504 24.6899H12.6454C10.4404 24.6899 10.1104 23.1449 10.1104 22.2299V15.3599C10.1104 14.4449 10.4404 12.8999 12.6454 12.8999H13.3504C15.5554 12.8999 15.8854 14.4449 15.8854 15.3599V22.2299C15.8854 23.1449 15.5554 24.6899 13.3504 24.6899ZM12.3904 22.4249C12.4504 22.4399 12.5404 22.4399 12.6604 22.4399H13.3654C13.4854 22.4399 13.5754 22.4399 13.6354 22.4249C13.6354 22.3799 13.6504 22.3199 13.6504 22.2299V15.3599C13.6504 15.2699 13.6504 15.2099 13.6354 15.1649C13.5754 15.1499 13.4854 15.1499 13.3654 15.1499H12.6604C12.5404 15.1499 12.4504 15.1499 12.3904 15.1649C12.3904 15.2099 12.3754 15.2699 12.3754 15.3599V22.2299C12.3754 22.3199 12.3754 22.3799 12.3904 22.4249Z" fill="white"/>
</svg>
