<svg width="24" height="25" viewBox="0 0 24 25" fill="none" xmlns="http://www.w3.org/2000/svg">
<g id="icon" clip-path="url(#clip0_1939_1254)">
<rect id="Rectangle 75" y="0.5" width="24" height="24" rx="12" fill="#FFA008"/>
<path id="c" d="M12.5939 7.5C13.2576 7.5 13.8341 7.57207 14.3231 7.71622C14.8239 7.86036 15.2082 8.06456 15.476 8.32883C15.7555 8.58108 15.8952 8.88739 15.8952 9.24775C15.8952 9.48799 15.8253 9.71622 15.6856 9.93243C15.5459 10.1366 15.3421 10.2387 15.0742 10.2387C14.8879 10.2387 14.7307 10.2147 14.6026 10.1667C14.4862 10.1066 14.3814 10.0345 14.2882 9.95045C14.1951 9.86637 14.0844 9.78829 13.9563 9.71622C13.8399 9.64414 13.6594 9.59009 13.4148 9.55405C13.182 9.50601 13.0073 9.48198 12.8908 9.48198C12.2969 9.48198 11.7904 9.61411 11.3712 9.87838C10.9636 10.1426 10.6492 10.503 10.4279 10.9595C10.2067 11.4039 10.0961 11.9204 10.0961 12.509C10.0961 13.0856 10.2067 13.6021 10.4279 14.0586C10.6608 14.503 10.9753 14.8574 11.3712 15.1216C11.7787 15.3859 12.2445 15.518 12.7686 15.518C13.0597 15.518 13.31 15.5 13.5197 15.464C13.7293 15.4279 13.9039 15.3739 14.0437 15.3018C14.2067 15.2057 14.3523 15.1036 14.4803 14.9955C14.6084 14.8874 14.8006 14.8333 15.0568 14.8333C15.3595 14.8333 15.5924 14.9354 15.7555 15.1396C15.9185 15.3318 16 15.5721 16 15.8604C16 16.1607 15.837 16.4369 15.5109 16.6892C15.1849 16.9294 14.754 17.1276 14.2183 17.2838C13.6943 17.4279 13.1237 17.5 12.5065 17.5C11.5866 17.5 10.7889 17.2838 10.1135 16.8514C9.43814 16.4069 8.91412 15.8063 8.54148 15.0496C8.18049 14.2928 8 13.4459 8 12.509C8 11.524 8.19214 10.6592 8.57642 9.91441C8.97234 9.15766 9.51383 8.56907 10.2009 8.14865C10.8996 7.71622 11.6972 7.5 12.5939 7.5Z" fill="white"/>
</g>
<defs>
<clipPath id="clip0_1939_1254">
<rect width="24" height="24" fill="white" transform="translate(0 0.5)"/>
</clipPath>
</defs>
</svg>
