<svg width="36" height="36" viewBox="0 0 36 36" fill="none" xmlns="http://www.w3.org/2000/svg">
<path d="M34.5 34.125H1.5C0.885 34.125 0.375 33.615 0.375 33C0.375 32.385 0.885 31.875 1.5 31.875H34.5C35.115 31.875 35.625 32.385 35.625 33C35.625 33.615 35.115 34.125 34.5 34.125Z" fill="white"/>
<path d="M29.6699 34.1402C29.0549 34.1402 28.5449 33.6302 28.5449 33.0152V26.3252C28.5449 25.7102 29.0549 25.2002 29.6699 25.2002C30.2849 25.2002 30.7949 25.7102 30.7949 26.3252V33.0152C30.7949 33.6302 30.2999 34.1402 29.6699 34.1402Z" fill="white"/>
<path d="M29.7004 27.45C27.2554 27.45 25.2754 25.47 25.2754 23.025V19.6201C25.2754 17.1751 27.2554 15.1951 29.7004 15.1951C32.1454 15.1951 34.1254 17.1751 34.1254 19.6201V23.025C34.1254 25.47 32.1454 27.45 29.7004 27.45ZM29.7004 17.4601C28.5004 17.4601 27.5254 18.4351 27.5254 19.6351V23.04C27.5254 24.24 28.5004 25.2151 29.7004 25.2151C30.9004 25.2151 31.8754 24.24 31.8754 23.04V19.6351C31.8754 18.4351 30.9004 17.4601 29.7004 17.4601Z" fill="white"/>
<path d="M21.4497 34.1251C20.8347 34.1251 20.3247 33.6151 20.3247 33.0001V9.04517C20.3247 6.66017 19.3197 5.64014 16.9797 5.64014H7.63477C5.27977 5.64014 4.25977 6.66017 4.25977 9.04517V33.0001C4.25977 33.6151 3.74977 34.1251 3.13477 34.1251C2.51977 34.1251 2.00977 33.6151 2.00977 33.0001V9.04517C2.00977 5.40017 4.00477 3.39014 7.63477 3.39014H16.9797C20.5947 3.39014 22.5747 5.40017 22.5747 9.04517V33.0001C22.5747 33.6151 22.0647 34.1251 21.4497 34.1251Z" fill="white"/>
<path d="M16.1242 13.5H8.69922C8.08422 13.5 7.57422 12.99 7.57422 12.375C7.57422 11.76 8.08422 11.25 8.69922 11.25H16.1242C16.7392 11.25 17.2492 11.76 17.2492 12.375C17.2492 12.99 16.7392 13.5 16.1242 13.5Z" fill="white"/>
<path d="M16.1242 19.125H8.69922C8.08422 19.125 7.57422 18.615 7.57422 18C7.57422 17.385 8.08422 16.875 8.69922 16.875H16.1242C16.7392 16.875 17.2492 17.385 17.2492 18C17.2492 18.615 16.7392 19.125 16.1242 19.125Z" fill="white"/>
<path d="M12.375 34.125C11.76 34.125 11.25 33.615 11.25 33V27.375C11.25 26.76 11.76 26.25 12.375 26.25C12.99 26.25 13.5 26.76 13.5 27.375V33C13.5 33.615 12.99 34.125 12.375 34.125Z" fill="white"/>
</svg>
